<svg width="190" height="179" viewBox="0 0 190 179" fill="none" xmlns="http://www.w3.org/2000/svg">
<g opacity="0.4">
<path opacity="0.4" d="M145.987 58.2493L155.54 64.0349V69.8163L145.987 64.0349V58.2493Z" fill="#F3B052"/>
</g>
<g opacity="0.2">
<path opacity="0.2" d="M134.85 51.5356L144.404 57.317L144.408 63.1027L134.85 57.317V51.5356Z" fill="#878787"/>
</g>
<g opacity="0.4">
<path opacity="0.4" d="M140.778 48.0744L149.743 53.5024V58.5728L140.778 53.1448V48.0744ZM140.485 47.5422V53.3236L150.039 59.1092V53.3236L140.502 47.5422H140.485Z" fill="#F3B052"/>
</g>
<g opacity="0.4">
<path opacity="0.4" d="M131.143 88.3738L140.697 94.1551V99.9408L131.143 94.1551V88.3738Z" fill="#878787"/>
</g>
<g opacity="0.4">
<path opacity="0.4" d="M180.002 111.503L189.552 117.289L189.556 123.07L180.002 117.289V111.503Z" fill="#F3B052"/>
</g>
<g opacity="0.2">
<path opacity="0.2" d="M120.01 81.6602L129.564 87.4415V93.2271L120.01 87.4415V81.6602Z" fill="#878787"/>
</g>
<g opacity="0.2">
<path opacity="0.2" d="M178.037 80.1401L187.591 85.9258L187.595 91.7071L178.037 85.9258V80.1401Z" fill="#878787"/>
</g>
<g opacity="0.4">
<path opacity="0.4" d="M125.938 78.199L134.899 83.6228V88.6975L125.938 83.2694V78.199ZM125.642 77.6626V83.4482L135.195 89.2296V83.4482L125.642 77.6626Z" fill="#878787"/>
</g>
<g opacity="0.4">
<path opacity="0.4" d="M173.798 14.1226L183.352 19.9082L183.356 25.6896L173.798 19.9082V14.1226Z" fill="#F3B052"/>
</g>
<g opacity="0.2">
<path opacity="0.2" d="M162.667 7.40894L172.22 13.1903V18.9759L162.667 13.1903V7.40894Z" fill="#878787"/>
</g>
<g opacity="0.4">
<path opacity="0.4" d="M168.594 3.94769L177.559 9.3757V14.4461L168.594 9.01809V3.94769ZM168.297 3.41553V9.1969L177.855 14.9825V9.1969L168.297 3.41553Z" fill="#878787"/>
</g>
<g opacity="0.4">
<path opacity="0.4" d="M137.119 0.133301L146.673 5.91467V11.696L137.119 5.91467V0.133301Z" fill="#F3B052"/>
</g>
<g opacity="0.4">
<path opacity="0.4" d="M143.689 79.1099L153.243 84.8912V90.6769L143.689 84.8912V79.1099Z" fill="#878787"/>
</g>
<path d="M0.450813 178.253C0.40651 178.253 0.36357 178.237 0.328547 178.209C0.293524 178.18 0.26834 178.14 0.256838 178.096C0.245336 178.051 0.248148 178.003 0.264844 177.96C0.28154 177.917 0.311204 177.881 0.34931 177.857L102.6 115.952C102.648 115.925 102.704 115.917 102.756 115.933C102.808 115.948 102.853 115.984 102.88 116.033C102.907 116.082 102.913 116.14 102.899 116.195C102.884 116.249 102.85 116.295 102.803 116.323L0.552317 178.223C0.521822 178.243 0.486645 178.253 0.450813 178.253Z" fill="#878787"/>
<g opacity="0.4">
<path opacity="0.4" d="M16.3864 147.558L6.83695 153.34L6.83289 159.125L16.3864 153.34V147.558Z" fill="#F3B052"/>
</g>
<g opacity="0.2">
<path opacity="0.2" d="M21.3236 137.562L11.7741 143.344L11.77 149.125L21.3236 143.344V137.562Z" fill="#878787"/>
</g>
<g opacity="0.4">
<path opacity="0.4" d="M10.4021 144.531V149.602L1.43726 155.034V149.963L10.4021 144.531ZM10.6944 143.999L1.14087 149.785V155.57L10.6944 149.785V144.003V143.999Z" fill="#F3B052"/>
</g>
<g opacity="0.4">
<path opacity="0.4" d="M59.6432 57.1851L50.0897 62.9707V68.752L59.6432 62.9707V57.1851Z" fill="#F3B052"/>
</g>
<g opacity="0.2">
<path opacity="0.2" d="M70.7762 50.4712L61.2267 56.2526L61.2227 62.0382L70.7762 56.2526V50.4712Z" fill="#878787"/>
</g>
<g opacity="0.4">
<path opacity="0.4" d="M64.8528 47.0102V52.0806L55.8839 57.5086V52.4382L64.8487 47.0102H64.8528ZM65.141 46.478L55.5875 52.2594V58.045L65.141 52.2594V46.478Z" fill="#878787"/>
</g>
<g opacity="0.4">
<path opacity="0.4" d="M65.8553 109.358L56.3018 115.144V120.929L65.8553 115.144V109.358Z" fill="#878787"/>
</g>
<g opacity="0.4">
<path opacity="0.4" d="M25.4937 86.7603L15.9402 92.5416V98.3272L25.4937 92.5416V86.7603Z" fill="#F3B052"/>
</g>
<g opacity="0.2">
<path opacity="0.2" d="M76.9889 102.644L67.4353 108.425V114.211L76.9889 108.43V102.644Z" fill="#878787"/>
</g>
<g opacity="0.2">
<path opacity="0.2" d="M31.4989 90.9453L21.9453 96.7267L21.9413 102.512L31.4989 96.7267V90.9453Z" fill="#878787"/>
</g>
<g opacity="0.4">
<path opacity="0.4" d="M71.0723 99.183V104.253L62.1075 109.681V104.611L71.0723 99.183ZM71.3687 98.6509L61.8152 104.432V110.218L71.3687 104.432V98.6509Z" fill="#878787"/>
</g>
<g opacity="0.4">
<path opacity="0.4" d="M53.0257 11.9048L43.4722 17.6862V23.4718L53.0257 17.6862V11.9048Z" fill="#F3B052"/>
</g>
<g opacity="0.4">
<path opacity="0.4" d="M13.4715 16.541L3.92203 22.3224L3.91797 28.108L13.4715 22.3224V16.541Z" fill="#F3B052"/>
</g>
<g opacity="0.2">
<path opacity="0.2" d="M64.1585 5.19092L54.605 10.9723V16.7579L64.1585 10.9723V5.19092Z" fill="#878787"/>
</g>
<g opacity="0.2">
<path opacity="0.2" d="M19.4764 20.7256L9.92285 26.507V32.2926L19.4764 26.507V20.7256Z" fill="#F3B052"/>
</g>
<g opacity="0.4">
<path opacity="0.4" d="M58.2345 1.72977V6.80018L49.2656 12.2282V7.15354L58.2304 1.72977H58.2345ZM58.5227 1.19336L48.9733 6.97899V12.7604L58.5268 6.97899V1.19336H58.5227Z" fill="#878787"/>
</g>
<g opacity="0.4">
<path opacity="0.4" d="M18.0151 51.6038L8.46561 57.3894L8.46155 63.1708L18.0151 57.3894V51.6038Z" fill="#F3B052"/>
</g>
<g opacity="0.4">
<path opacity="0.4" d="M70.8092 25.9622L61.2556 31.7435V37.5292L70.8092 31.7435V25.9622Z" fill="#F3B052"/>
</g>
<g opacity="0.4">
<path opacity="0.4" d="M70.8092 83.0137L61.2556 88.7951V94.5807L70.8092 88.7951V83.0137Z" fill="#F3B052"/>
</g>
<g opacity="0.2">
<path opacity="0.2" d="M12.2735 62.1704L2.72 67.956L2.71594 73.7374L12.2735 67.956V62.1704Z" fill="#878787"/>
</g>
<g opacity="0.4">
<path opacity="0.4" d="M17.7221 66.7766V71.8471L8.7573 77.2666V72.2004L17.7221 66.7766ZM18.0144 66.2402L8.46497 72.0259V77.8072L18.0185 72.0259V66.2402H18.0144Z" fill="#F3B052"/>
</g>
</svg>
